<?xml version="1.0" encoding="UTF-8"?>
<svg version="1.1" xmlns="http://www.w3.org/2000/svg" width="479" height="86">
<path d="M0 0 C4.58180638 3.24078988 8.06508252 6.76771668 10.5625 11.8125 C10.85546875 15.14453125 10.85546875 15.14453125 10.75 18.625 C10.70939453 20.36716797 10.70939453 20.36716797 10.66796875 22.14453125 C10.63316406 23.02496094 10.59835937 23.90539062 10.5625 24.8125 C11.366875 24.956875 12.17125 25.10125 13 25.25 C15.5625 25.8125 15.5625 25.8125 16.5625 26.8125 C16.85432855 31.42376054 16.8766171 36.03785961 16.91259766 40.6574707 C16.92910568 42.21035808 16.95632784 43.76317109 16.99462891 45.31567383 C17.04967652 47.55850503 17.07131608 49.799551 17.0859375 52.04296875 C17.10860687 52.7306987 17.13127625 53.41842865 17.15463257 54.1269989 C17.13023403 59.75146443 15.39175523 62.00596497 11.5625 65.8125 C6.62535323 68.28107338 -1.00237226 67.12538238 -6.49414062 67.16259766 C-8.28268466 67.17913423 -10.07116323 67.20639412 -11.859375 67.24462891 C-14.44305573 67.29957034 -17.02518772 67.32129843 -19.609375 67.3359375 C-20.40333679 67.35860687 -21.19729858 67.38127625 -22.01531982 67.40463257 C-25.8904575 67.38998265 -28.72585071 67.05621636 -31.95263672 64.80249023 C-35.10403762 61.01046755 -35.21517459 58.16498461 -35.0234375 53.44921875 C-35.01494781 52.65723587 -35.00645813 51.86525299 -34.99771118 51.04927063 C-34.9642492 48.53143504 -34.88899443 46.01685924 -34.8125 43.5 C-34.78239059 41.78845788 -34.75501647 40.0768653 -34.73046875 38.36523438 C-34.66448296 34.17974267 -34.56102036 29.99667302 -34.4375 25.8125 C-32.7875 25.4825 -31.1375 25.1525 -29.4375 24.8125 C-29.48390625 24.11125 -29.5303125 23.41 -29.578125 22.6875 C-29.82809378 16.11689194 -29.4227068 11.19130673 -25.4375 5.8125 C-18.3622888 -1.60322939 -9.71049995 -3.35453635 0 0 Z M-19.8125 10.8125 C-22.31068577 14.85589594 -22.31068577 14.85589594 -21.4375 24.8125 C-13.1875 24.8125 -4.9375 24.8125 3.5625 24.8125 C4.08244183 16.62382077 4.08244183 16.62382077 0.5625 10.8125 C-6.20625563 4.04374437 -12.84307504 4.94351056 -19.8125 10.8125 Z M-11.4375 39.8125 C-12.73383621 40.87895115 -12.73383621 40.87895115 -12.5 43.375 C-12.479375 44.179375 -12.45875 44.98375 -12.4375 45.8125 C-11.7775 45.8125 -11.1175 45.8125 -10.4375 45.8125 C-10.4375 48.4525 -10.4375 51.0925 -10.4375 53.8125 C-9.7775 54.1425 -9.1175 54.4725 -8.4375 54.8125 C-8.251875 52.894375 -8.251875 52.894375 -8.0625 50.9375 C-7.6875 47.0625 -7.6875 47.0625 -5.4375 44.8125 C-5.7560177 42.70429203 -5.7560177 42.70429203 -6.4375 40.8125 C-8.09364657 40.43031233 -9.76207024 40.09854898 -11.4375 39.8125 Z " fill="#CD0202" transform="translate(247.4375,8.1875)"/>
<path d="M0 0 C0 0.66 0 1.32 0 2 C-0.66 2 -1.32 2 -2 2 C-2.33 3.32 -2.66 4.64 -3 6 C-1.35 6 0.3 6 2 6 C2 5.34 2 4.68 2 4 C6.54805635 3.82164485 9.8794254 4.00214565 14 6 C14 6.66 14 7.32 14 8 C14.61875 8.2475 15.2375 8.495 15.875 8.75 C18.49551018 10.29147658 18.94211913 11.16639052 20 14 C20.1953125 17.234375 20.1953125 17.234375 20.125 20.75 C20.10695312 21.92046875 20.08890625 23.0909375 20.0703125 24.296875 C20.04710937 25.18890625 20.02390625 26.0809375 20 27 C17.28598706 28.35700647 15.15153684 28.1123861 12.1171875 28.09765625 C10.95058594 28.09443359 9.78398437 28.09121094 8.58203125 28.08789062 C7.35871094 28.07951172 6.13539063 28.07113281 4.875 28.0625 C3.64394531 28.05798828 2.41289062 28.05347656 1.14453125 28.04882812 C-1.90366639 28.03701341 -4.95183916 28.0190775 -8 28 C-8 23.05 -8 18.1 -8 13 C-7.34 13 -6.68 13 -6 13 C-6 12.01 -6 11.02 -6 10 C-7.98 10.66 -9.96 11.32 -12 12 C-11.979375 13.175625 -11.95875 14.35125 -11.9375 15.5625 C-11.93052739 19.47413467 -12.35749657 23.14497944 -13 27 C-14.32 27 -15.64 27 -17 27 C-16.67 38.22 -16.34 49.44 -16 61 C-12.27085833 62.86457083 -10.57654714 63.31759484 -6.578125 63.58984375 C-5.51787109 63.66315918 -4.45761719 63.73647461 -3.36523438 63.81201172 C2.17149714 64.12130389 7.70829092 64.36294613 13.25 64.5625 C14.38824219 64.60568359 15.52648437 64.64886719 16.69921875 64.69335938 C19.46606496 64.79798801 22.23297726 64.9001689 25 65 C25 65.66 25 66.32 25 67 C19.69816541 67.1239816 14.39718206 67.21451776 9.09423828 67.2746582 C7.29200534 67.29973866 5.48987349 67.33381188 3.68798828 67.37719727 C1.09121723 67.4381375 -1.50420465 67.46627346 -4.1015625 67.48828125 C-5.30191635 67.52699089 -5.30191635 67.52699089 -6.52651978 67.56648254 C-10.42158827 67.56841721 -13.2745244 67.25878333 -16.51953125 64.9921875 C-19.6646834 61.19819294 -19.77760453 58.35076144 -19.5859375 53.63671875 C-19.57744781 52.84473587 -19.56895813 52.05275299 -19.56021118 51.23677063 C-19.5267492 48.71893504 -19.45149443 46.20435924 -19.375 43.6875 C-19.34489059 41.97595788 -19.31751647 40.2643653 -19.29296875 38.55273438 C-19.22698296 34.36724267 -19.12352036 30.18417302 -19 26 C-17.35 25.67 -15.7 25.34 -14 25 C-14.04640625 24.29875 -14.0928125 23.5975 -14.140625 22.875 C-14.39028894 16.31240495 -13.99262162 11.36812845 -10 6 C-4.13466334 0 -4.13466334 0 0 0 Z M-4.375 11 C-6.87318577 15.04339594 -6.87318577 15.04339594 -6 25 C2.25 25 10.5 25 19 25 C19.51994183 16.81132077 19.51994183 16.81132077 16 11 C9.23124437 4.23124437 2.59442496 5.13101056 -4.375 11 Z " fill="#A41010" transform="translate(232,8)"/>
<path d="M0 0 C0 3 0 3 -2.375 5.75 C-6.51801097 11.16056107 -6.43345793 18.42980311 -7 25 C-8.32 25 -9.64 25 -11 25 C-10.67 36.22 -10.34 47.44 -10 59 C-6.27085833 60.86457083 -4.57654714 61.31759484 -0.578125 61.58984375 C0.48212891 61.66315918 1.54238281 61.73647461 2.63476562 61.81201172 C8.17149714 62.12130389 13.70829092 62.36294613 19.25 62.5625 C20.38824219 62.60568359 21.52648437 62.64886719 22.69921875 62.69335938 C25.46606496 62.79798801 28.23297726 62.9001689 31 63 C31 63.66 31 64.32 31 65 C25.69816541 65.1239816 20.39718206 65.21451776 15.09423828 65.2746582 C13.29200534 65.29973866 11.48987349 65.33381188 9.68798828 65.37719727 C7.09121723 65.4381375 4.49579535 65.46627346 1.8984375 65.48828125 C0.69808365 65.52699089 0.69808365 65.52699089 -0.52651978 65.56648254 C-4.42158827 65.56841721 -7.2745244 65.25878333 -10.51953125 62.9921875 C-13.6646834 59.19819294 -13.77760453 56.35076144 -13.5859375 51.63671875 C-13.57744781 50.84473587 -13.56895813 50.05275299 -13.56021118 49.23677063 C-13.5267492 46.71893504 -13.45149443 44.20435924 -13.375 41.6875 C-13.34489059 39.97595788 -13.31751647 38.2643653 -13.29296875 36.55273438 C-13.22698296 32.36724267 -13.12352036 28.18417302 -13 24 C-11.35 23.67 -9.7 23.34 -8 23 C-8.04640625 22.29875 -8.0928125 21.5975 -8.140625 20.875 C-8.44821615 12.78974696 -7.19866892 7.55407657 -1.75 1.5 C-0.88375 0.7575 -0.88375 0.7575 0 0 Z " fill="#AF4443" transform="translate(226,10)"/>
<path d="M0 0 C8.47648612 -0.37033192 14.08685313 -0.45812979 20.6875 5.375 C24.9526813 10.21655715 26.3853326 13.28402412 26.1875 19.8125 C26.16042969 20.97394531 26.13335937 22.13539062 26.10546875 23.33203125 C26.07066406 24.21246094 26.03585937 25.09289062 26 26 C26.804375 26.144375 27.60875 26.28875 28.4375 26.4375 C31 27 31 27 32 28 C32.29182855 32.61126054 32.3141171 37.22535961 32.35009766 41.8449707 C32.36660568 43.39785808 32.39382784 44.95067109 32.43212891 46.50317383 C32.48717652 48.74600503 32.50881608 50.987051 32.5234375 53.23046875 C32.54610687 53.9181987 32.56877625 54.60592865 32.59213257 55.3144989 C32.56781186 60.92102374 30.76022158 63.16796734 27 67 C27 64 27 64 29 61 C29.1712914 58.45770403 29.23242934 56.02810519 29.1953125 53.48828125 C29.19106766 52.39594429 29.19106766 52.39594429 29.18673706 51.28153992 C29.17555257 48.95835863 29.15045166 46.63556453 29.125 44.3125 C29.11496794 42.7363337 29.10584248 41.16016135 29.09765625 39.58398438 C29.07561896 35.72250733 29.04110141 31.86131929 29 28 C27.35 28 25.7 28 24 28 C24 23.05 24 18.1 24 13 C23.34 13 22.68 13 22 13 C21.34 10.69 20.68 8.38 20 6 C17.36 5.34 14.72 4.68 12 4 C12 3.34 12 2.68 12 2 C8.04 1.67 4.08 1.34 0 1 C0 0.67 0 0.34 0 0 Z " fill="#A74847" transform="translate(232,7)"/>
<path d="M0 0 C4.54805635 -0.17835515 7.8794254 0.00214565 12 2 C12 2.66 12 3.32 12 4 C12.928125 4.37125 12.928125 4.37125 13.875 4.75 C16 6 16 6 18 10 C18 14.29 18 18.58 18 23 C9.09 23 0.18 23 -9 23 C-9 22.34 -9 21.68 -9 21 C-0.42 21 8.16 21 17 21 C16.19274004 9.86471214 16.19274004 9.86471214 12.3125 5.8125 C7.12018273 2.97142074 2.7032249 2.44457503 -3 4 C-2.67 3.34 -2.34 2.68 -2 2 C-1.34 2 -0.68 2 0 2 C0 1.34 0 0.68 0 0 Z " fill="#A83938" transform="translate(234,12)"/>
<path d="M0 0 C0.99 0 1.98 0 3 0 C3.1241194 4.58974462 3.21457876 9.17850086 3.2746582 13.76953125 C3.29971627 15.32927479 3.33377301 16.8889019 3.37719727 18.44824219 C3.43824193 20.69755843 3.46629426 22.9453156 3.48828125 25.1953125 C3.51408768 25.8861795 3.5398941 26.57704651 3.56648254 27.28884888 C3.56970226 32.91767806 1.77726265 35.15738678 -2 39 C-2 36 -2 36 0 33 C0.1712914 30.45770403 0.23242934 28.02810519 0.1953125 25.48828125 C0.19106766 24.39594429 0.19106766 24.39594429 0.18673706 23.28153992 C0.17555257 20.95835863 0.15045166 18.63556453 0.125 16.3125 C0.11496794 14.7363337 0.10584248 13.16016135 0.09765625 11.58398438 C0.07561896 7.72250733 0.04110141 3.86131929 0 0 Z " fill="#641D1B" transform="translate(261,35)"/>
<path d="M0 0 C0.33 0 0.66 0 1 0 C1.04254356 1.99954746 1.04080783 4.00041636 1 6 C0.67 6.33 0.34 6.66 0 7 C-0.36760731 9.32817964 -0.70241581 11.6618385 -1 14 C-2.65 14.33 -4.3 14.66 -6 15 C-6.625 11.625 -6.625 11.625 -7 8 C-6.34 7.34 -5.68 6.68 -5 6 C-4.67 7.98 -4.34 9.96 -4 12 C-3.896875 10.948125 -3.79375 9.89625 -3.6875 8.8125 C-3.02191729 5.12154134 -2.18245468 3.00087519 0 0 Z " fill="#BD3130" transform="translate(242,50)"/>
<path d="M0 0 C12.90861619 -0.56396867 12.90861619 -0.56396867 18 3 C20.375 5.1875 20.375 5.1875 22 7 C21.01 7.495 21.01 7.495 20 8 C20 7.34 20 6.68 20 6 C17.36 5.34 14.72 4.68 12 4 C12 3.34 12 2.68 12 2 C8.04 1.67 4.08 1.34 0 1 C0 0.67 0 0.34 0 0 Z " fill="#862320" transform="translate(232,7)"/>
<path d="M0 0 C2.38564077 0.57584432 4.66682784 1.22227595 7 2 C9.05893621 2.22325814 11.12233653 2.40705759 13.1875 2.5625 C14.27417969 2.64628906 15.36085937 2.73007813 16.48046875 2.81640625 C17.72763672 2.90728516 17.72763672 2.90728516 19 3 C19 3.33 19 3.66 19 4 C16.58345672 4.30357074 14.1726572 4.56844304 11.75 4.8125 C10.72712891 4.94688477 10.72712891 4.94688477 9.68359375 5.08398438 C7.671875 5.26953125 7.671875 5.26953125 4 5 C1.515625 2.51171875 1.515625 2.51171875 0 0 Z " fill="#A11516" transform="translate(213,69)"/>
<path d="M0 0 C2.64 0 5.28 0 8 0 C6.515 2.475 6.515 2.475 5 5 C4.67 3.68 4.34 2.36 4 1 C2.35 1.66 0.7 2.32 -1 3 C-0.67 2.01 -0.34 1.02 0 0 Z " fill="#9C1F20" transform="translate(222,17)"/>
<path d="M0 0 C-0.33 0.99 -0.66 1.98 -1 3 C-2.65 3 -4.3 3 -6 3 C-6.33 2.01 -6.66 1.02 -7 0 C-4.3333581 -1.33332095 -2.83319697 -0.67102033 0 0 Z " fill="#9D0D08" transform="translate(241,46)"/>
<path d="M0 0 C1.98 0 3.96 0 6 0 C6 0.66 6 1.32 6 2 C7.32 2.66 8.64 3.32 10 4 C9.34 4.66 8.68 5.32 8 6 C7.236875 5.38125 6.47375 4.7625 5.6875 4.125 C3.00374191 1.94402948 3.00374191 1.94402948 0 0 Z " fill="#890C0A" transform="translate(240,14)"/>
</svg>
